# xmcd
#
# Track frame offsets: 
#        150
#        16342
#        29047
#        43345
#        65567
#        77260
#        91122
#        106275
#        121022
#        131725
#        151770
#        170162
#        187217
#        203125
#        220282
#        235270
#        249540
#        263390
#        277700
#        293712
#
# Disc length: 4128 seconds
#
# Revision: 0
# Processed by: cddbd v1.4PL0 Copyright (c) Steve Scherf et al.
# Submitted via: ExactAudioCopy v0.90b3
#
DISCID=15101e14
DTITLE=Lacy J. Dalton - Country Classics
DYEAR=1900
DGENRE=Country
TTITLE0=Black Coffee
TTITLE1=The Heart
TTITLE2=I'm A Survivor
TTITLE3=Hard Luck Ace
TTITLE4=Love Hurts
TTITLE5=Ain't No Question
TTITLE6=Don't Try To Tell Me
TTITLE7=Heartache In Disguise
TTITLE8=Bye Bye Love (With Eddie Rabbitt)
TTITLE9=Stay With Me
TTITLE10=Forever In My Heart
TTITLE11=Loveless Cafe
TTITLE12=Lay A Little Love On Me
TTITLE13=Old Friends
TTITLE14=Turn To The One
TTITLE15=Me And These Arms
TTITLE16=Here Today Here Tomorrow
TTITLE17=Turn To A Little 3Rd Rate Romance
TTITLE18=Lonesome (As The Night Is Long)
TTITLE19=That Road
EXTD=
EXTT0=
EXTT1=
EXTT2=
EXTT3=
EXTT4=
EXTT5=
EXTT6=
EXTT7=
EXTT8=
EXTT9=
EXTT10=
EXTT11=
EXTT12=
EXTT13=
EXTT14=
EXTT15=
EXTT16=
EXTT17=
EXTT18=
EXTT19=
PLAYORDER=
